<svg width="804" height="248" viewBox="0 0 804 248" fill="none" xmlns="http://www.w3.org/2000/svg">
<g clip-path="url(#clip0_1501_25)">
<path d="M176.06 54.5297C176.06 57.0397 175.81 59.4897 175.34 61.8497C173.89 69.2197 170.28 75.8097 165.2 80.9397C165.2 80.9397 158.07 88.0797 157.96 88.1797C151.17 94.8897 141.84 99.0297 131.54 99.0297C130.68 99.0297 116.8 99.5897 105.28 88.3397L78.38 61.4397L112.36 27.4697C121.05 19.0697 131.88 16.9297 138.46 16.9297C148.8 16.9297 158.16 21.0997 164.96 27.8597C164.96 27.8597 176.05 37.6897 176.05 54.5197L176.06 54.5297Z" fill="url(#paint0_linear_1501_25)"/>
<path d="M135.83 105.04C130.84 105.53 125.77 105.16 120.88 103.93C113.44 102.07 106.4 98.2397 100.58 92.4197C100.64 92.4797 64.01 55.8597 64.01 55.8597C57.22 49.1497 47.89 45.0097 37.59 45.0097C16.83 45.0097 0 61.8397 0 82.5997C0 92.8997 4.14 102.23 10.85 109.01C10.95 109.12 11.06 109.23 11.17 109.33L47.59 145.75C62.22 160.2 85.77 160.2 100.4 145.75C100.47 145.68 142.22 103.93 142.22 103.93C140.12 104.46 137.98 104.83 135.83 105.04Z" fill="url(#paint1_linear_1501_25)"/>
<path d="M286.73 38.4003L283.65 38.2203C275.68 38.2203 262.64 43.4703 259.56 60.5003V48.9103C259.56 43.2903 256.48 40.2203 250.87 40.2203H240.91C235.29 40.2203 232.22 43.3003 232.22 48.9103V124.62C232.22 130.23 235.3 133.31 240.91 133.31H251.6C257.22 133.31 260.29 130.23 260.29 124.62V95.2803C260.29 71.9103 270.25 64.8503 281.12 64.8503C282.57 64.8503 284.02 65.0303 285.65 65.2103C289.45 65.7503 291.99 63.5803 291.99 58.5103V45.8303C291.99 42.2103 291.08 38.7703 286.74 38.4003H286.73Z" fill="#1B262D"/>
<path d="M348.07 38.2203C316.73 38.2203 296.99 60.8603 296.99 87.1303C296.99 113.4 317.28 135.31 350.61 135.31C362.56 135.31 375.06 132.59 385.75 124.8C390.64 121.18 391 116.29 387.38 111.94L385.39 109.4C381.95 105.23 377.96 104.87 373.07 107.59C366.01 111.57 359.12 113.21 352.42 113.21C334.49 113.21 323.44 102.52 323.8 91.4703H388.65C394.08 91.4703 397.71 89.1203 397.53 83.8603C396.26 54.1503 374.53 38.2103 348.08 38.2103L348.07 38.2203ZM324.52 75.8903C327.6 63.7503 338.65 59.4103 348.43 59.4103C358.21 59.4103 368.72 63.3903 371.25 75.8903H324.52Z" fill="#1B262D"/>
<path d="M503.58 40.2103H492.89C487.27 40.2103 484.2 43.2903 484.2 48.9003V53.4303C477.5 42.9203 466.63 38.2103 454.31 38.2103C428.23 38.2103 409.57 59.4003 409.57 86.7503C409.57 114.1 428.23 135.29 454.31 135.29C466.63 135.29 477.5 130.58 484.2 120.26V124.61C484.2 130.22 487.28 133.3 492.89 133.3H503.58C509.2 133.3 512.27 130.22 512.27 124.61V48.9003C512.27 43.2803 509.19 40.2103 503.58 40.2103ZM460.83 112.85C446.16 112.85 437.64 101.26 437.64 86.7703C437.64 72.2803 446.15 60.6903 460.83 60.6903C475.51 60.6903 484.56 71.9203 484.56 86.7703C484.56 101.62 475.14 112.85 460.83 112.85Z" fill="#1B262D"/>
<path d="M545.51 2.35027H535C529.38 2.35027 526.31 5.43028 526.31 11.0403V124.61C526.31 130.22 529.39 133.3 535 133.3H545.51C551.13 133.3 554.39 130.22 554.39 124.61V11.0403C554.39 5.42028 551.13 2.35027 545.51 2.35027Z" fill="#1B262D"/>
<path d="M582.58 0C571.71 0 565.73 6.34 565.73 14.67C565.73 23 572.25 29.16 582.58 29.16C592.91 29.16 599.43 22.82 599.43 14.67C599.43 6.52 593.27 0 582.58 0Z" fill="#1B262D"/>
<path d="M588.02 40.21H577.32C572.521 40.21 568.63 44.1006 568.63 48.9V124.62C568.63 129.419 572.521 133.31 577.32 133.31H588.02C592.82 133.31 596.71 129.419 596.71 124.62V48.9C596.71 44.1006 592.82 40.21 588.02 40.21Z" fill="#1B262D"/>
<path d="M693.23 111.58H647.58L694.68 61.0403C697.76 57.6003 698.85 54.5203 698.85 50.1703V48.9003C698.85 43.2803 695.77 40.2103 690.16 40.2103H618.43C612.81 40.2103 609.74 43.2903 609.74 48.9003V53.2503C609.74 58.8603 612.82 61.9403 618.43 61.9403H658.82L611.54 112.66C608.46 116.1 607.37 119.18 607.37 123.53V124.62C607.37 130.23 610.45 133.31 616.06 133.31H693.22C698.84 133.31 701.91 130.23 702.1 124.62V120.27C702.1 114.66 698.84 111.58 693.22 111.58H693.23Z" fill="#1B262D"/>
<path d="M795.52 91.4703C800.95 91.4703 804.58 89.1203 804.4 83.8603C803.13 54.1503 781.4 38.2103 754.95 38.2103C723.61 38.2103 703.87 60.8503 703.87 87.1203C703.87 113.39 724.16 135.3 757.49 135.3C769.44 135.3 781.94 132.58 792.63 124.79C797.52 121.17 797.88 116.28 794.26 111.93L792.27 109.39C788.83 105.22 784.84 104.86 779.95 107.58C772.89 111.56 766 113.2 759.3 113.2C741.37 113.2 730.32 102.51 730.68 91.4603H795.53L795.52 91.4703ZM755.31 59.4103C764.91 59.4103 775.6 63.3903 778.13 75.8903H731.4C734.48 63.7503 745.53 59.4103 755.31 59.4103Z" fill="#1B262D"/>
<path d="M412.283 211.752L432.808 157.64H443.355L463.88 211.752H452.522L447.817 198.041H427.697L422.992 211.752H412.283ZM430.537 189.604H444.896L437.757 168.592L430.537 189.604Z" fill="#1B262D"/>
<path d="M477.452 211.752V173.703H486.619L486.863 178.003C487.836 176.921 489.242 175.813 491.081 174.677C492.92 173.487 495.327 172.892 498.302 172.892C503.007 172.892 506.604 174.325 509.091 177.192C511.633 180.004 512.904 183.817 512.904 188.631V211.752H503.331V188.712C503.331 186.332 502.655 184.466 501.303 183.114C500.005 181.762 498.302 181.086 496.192 181.086C493.542 181.086 491.352 182.059 489.621 184.006C487.89 185.953 487.025 188.333 487.025 191.145V211.752H477.452Z" fill="#1B262D"/>
<path d="M552.963 211.752L552.72 208.182C551.692 209.426 550.097 210.535 547.933 211.508C545.824 212.482 543.498 212.969 540.956 212.969C538.901 212.969 536.846 212.536 534.791 211.671C532.79 210.805 531.113 209.453 529.761 207.614C528.463 205.775 527.814 203.45 527.814 200.637C527.814 196.311 529.355 192.957 532.438 190.578C535.521 188.198 539.55 187.008 544.526 187.008C545.445 187.008 546.527 187.035 547.771 187.089C549.069 187.143 550.719 187.224 552.72 187.333V186.44C552.72 184.547 551.963 183.06 550.448 181.978C548.934 180.896 546.96 180.356 544.526 180.356C541.822 180.356 539.658 180.707 538.036 181.41C536.413 182.113 534.98 182.871 533.736 183.682L529.355 177.192C530.383 176.434 531.6 175.704 533.006 175.001C534.412 174.244 536.143 173.622 538.198 173.135C540.253 172.649 542.795 172.405 545.824 172.405C550.692 172.405 554.586 173.703 557.506 176.299C560.427 178.841 561.887 182.14 561.887 186.197V211.752H552.963ZM552.72 198.285V194.553C551.476 194.445 550.124 194.363 548.663 194.309C547.203 194.255 546.094 194.228 545.337 194.228C542.254 194.228 540.091 194.85 538.847 196.094C537.603 197.284 536.981 198.663 536.981 200.232C536.981 201.854 537.549 203.125 538.685 204.045C539.875 204.964 541.605 205.424 543.877 205.424C545.391 205.424 546.798 205.099 548.096 204.45C549.448 203.801 550.556 202.936 551.422 201.854C552.287 200.772 552.72 199.583 552.72 198.285Z" fill="#1B262D"/>
<path d="M579.241 211.752V157.64H588.814V211.752H579.241Z" fill="#1B262D"/>
<path d="M602.421 226.03L606.72 219.296C607.261 219.729 607.856 220.135 608.505 220.513C609.154 220.946 609.965 221.162 610.939 221.162C612.237 221.162 613.319 220.621 614.184 219.54C615.049 218.458 615.915 216.781 616.78 214.51L617.997 211.427L600.879 173.703H611.912L622.783 199.745L632.356 173.703H642.822L626.921 211.752C626.164 213.591 625.38 215.511 624.568 217.512C623.811 219.567 622.892 221.433 621.81 223.109C620.782 224.84 619.457 226.246 617.835 227.328C616.212 228.41 614.13 228.95 611.588 228.95C609.425 228.95 607.613 228.68 606.152 228.139C604.746 227.598 603.502 226.895 602.421 226.03Z" fill="#1B262D"/>
<path d="M659.318 198.771V181.491H652.828V173.703H659.318V161.372H668.891V173.703H679.113V181.491H668.891V198.122C668.891 200.286 669.243 201.962 669.946 203.152C670.703 204.288 671.893 204.856 673.516 204.856C675.03 204.856 676.22 204.64 677.085 204.207C678.005 203.774 678.87 203.26 679.681 202.665L683.737 208.588C681.845 210.102 679.979 211.211 678.14 211.914C676.301 212.617 674.246 212.969 671.974 212.969C667.323 212.969 664.051 211.671 662.158 209.074C660.265 206.478 659.318 203.044 659.318 198.771Z" fill="#1B262D"/>
<path d="M696.908 167.7V157.64H707.13V167.7H696.908ZM697.232 211.752V173.703H706.805V211.752H697.232Z" fill="#1B262D"/>
<path d="M752.572 200.556L758.251 206.722C756.466 208.615 754.33 210.129 751.842 211.265C749.408 212.401 746.596 212.969 743.405 212.969C739.078 212.969 735.373 212.13 732.29 210.454C729.262 208.723 726.936 206.343 725.314 203.314C723.745 200.232 722.961 196.689 722.961 192.687C722.961 189.009 723.826 185.629 725.557 182.546C727.288 179.463 729.667 177.002 732.696 175.164C735.779 173.325 739.349 172.405 743.405 172.405C746.488 172.405 749.3 172.973 751.842 174.109C754.384 175.191 756.547 176.678 758.332 178.571L752.248 184.736C751.22 183.493 749.949 182.519 748.435 181.816C746.974 181.113 745.298 180.761 743.405 180.761C740.971 180.761 738.943 181.329 737.32 182.465C735.752 183.601 734.562 185.088 733.751 186.927C732.994 188.712 732.615 190.632 732.615 192.687C732.615 194.58 732.994 196.446 733.751 198.285C734.562 200.123 735.752 201.638 737.32 202.828C738.943 204.018 740.971 204.612 743.405 204.612C745.298 204.612 747.029 204.261 748.597 203.558C750.22 202.801 751.545 201.8 752.572 200.556Z" fill="#1B262D"/>
<path d="M770.922 207.127L776.682 200.881C777.872 202.071 779.359 203.071 781.144 203.882C782.983 204.64 785.065 205.018 787.391 205.018C789.446 205.018 791.096 204.748 792.339 204.207C793.583 203.612 794.205 202.72 794.205 201.53C794.205 200.772 793.962 200.123 793.475 199.583C793.043 198.988 792.15 198.42 790.798 197.879C789.446 197.284 787.364 196.662 784.551 196.013C782.875 195.58 781.09 194.931 779.197 194.066C777.304 193.201 775.681 191.984 774.329 190.415C773.031 188.793 772.382 186.765 772.382 184.331C772.382 181.789 773.14 179.625 774.654 177.841C776.222 176.056 778.196 174.704 780.576 173.784C783.01 172.865 785.498 172.405 788.04 172.405C791.393 172.405 794.259 172.757 796.639 173.46C799.019 174.163 801.128 175.218 802.967 176.624L798.018 183.357C796.991 182.6 795.612 181.924 793.881 181.329C792.204 180.68 790.257 180.356 788.04 180.356C785.822 180.356 784.254 180.707 783.334 181.41C782.415 182.059 781.955 182.871 781.955 183.844C781.955 185.034 782.685 185.98 784.146 186.683C785.66 187.333 787.986 188.036 791.123 188.793C794.963 189.658 798.018 191.01 800.29 192.849C802.616 194.634 803.778 197.365 803.778 201.043C803.778 203.477 803.021 205.613 801.507 207.452C800.046 209.237 798.072 210.616 795.585 211.589C793.151 212.563 790.447 213.05 787.472 213.05C783.956 213.05 780.738 212.563 777.818 211.589C774.951 210.562 772.653 209.074 770.922 207.127Z" fill="#1B262D"/>
<path d="M403.44 166.118L373.251 196.306L359.834 182.889L333 209.723" stroke="#FD314D" stroke-width="6.70863" stroke-linecap="round" stroke-linejoin="round"/>
<path d="M403.44 182.889V166.118H386.669" stroke="#FD314D" stroke-width="6.70863" stroke-linecap="round" stroke-linejoin="round"/>
</g>
<defs>
<linearGradient id="paint0_linear_1501_25" x1="-0.0233659" y1="86.7471" x2="176.062" y2="86.7471" gradientUnits="userSpaceOnUse">
<stop stop-color="#CE1C5A"/>
<stop offset="1" stop-color="#FD314D"/>
</linearGradient>
<linearGradient id="paint1_linear_1501_25" x1="-0.0233659" y1="86.7471" x2="176.062" y2="86.7471" gradientUnits="userSpaceOnUse">
<stop stop-color="#CE1C5A"/>
<stop offset="1" stop-color="#FD314D"/>
</linearGradient>
<clipPath id="clip0_1501_25">
<rect width="804" height="248" fill="white"/>
</clipPath>
</defs>
</svg>
